<svg xmlns="http://www.w3.org/2000/svg" viewBox="0 0 128 128" role="img" aria-label="Swan logo">
  <rect width="128" height="128" rx="32" fill="#fffaf7"/>
  <circle cx="64" cy="64" r="50" fill="none" stroke="#d8b996" stroke-width="4"/>
  <g transform="translate(128 0) scale(-1 1)">
    <path
      d="M38 78c9 13 27 17 43 9 9-5 15-13 17-23-10 9-22 14-36 14H38Z"
      fill="#8f555b"
    />
    <path
      d="M68 78c-13-2-22-11-22-24 0-15 12-28 27-28 9 0 17 5 22 12-7-3-14-3-20 1-8 5-13 14-13 24 0 6 2 11 6 15Z"
      fill="#fffaf7"
    />
    <path
      d="M74 37c8-2 17 1 23 8-9-1-17 3-22 10-5 8-5 17 0 25-9-4-15-13-15-24 0-10 5-17 14-19Z"
      fill="#8f555b"
    />
    <path
      d="M92 43c6 3 10 8 11 14-5-2-10-2-14 1 1-5 2-10 3-15Z"
      fill="#d8b996"
    />
    <circle cx="83" cy="43" r="2.4" fill="#2f2a2a"/>
    <path
      d="M33 83c14 12 39 16 62 2"
      fill="none"
      stroke="#d8b996"
      stroke-linecap="round"
      stroke-width="4"
    />
  </g>
</svg>
